<svg xmlns="http://www.w3.org/2000/svg" viewBox="0 0 589.71 73.71"><defs><style>.cls-1{fill:#3e3a39;}</style></defs><g id="レイヤー_2" data-name="レイヤー 2"><g id="レイヤー_1-2" data-name="レイヤー 1"><path class="cls-1" d="M10.38,56.89a9.48,9.48,0,0,0-4.15-1.13c-1.77,0-3.94.77-3.94,3.37,0,2,1.59,2.71,3.89,3.77,2.89,1.35,4.94,2.58,4.94,5.55,0,3.64-2.41,5.16-5.35,5.16A15.26,15.26,0,0,1,0,72.38L.39,71a13.92,13.92,0,0,0,5.33,1.21c1.93,0,3.88-.85,3.88-3.72,0-2-1.61-3.14-4.24-4.34S.8,62,.8,59.18c0-3.38,2.63-4.78,5.28-4.78a10.79,10.79,0,0,1,4.75,1.16Z"/><path class="cls-1" d="M25.46,59.25a3.65,3.65,0,0,1,3.76,2.32,7.8,7.8,0,0,1,5.29-2.32c3,0,4.32,1.79,4.32,5.07v9H37.35V64.64c0-2-.5-4.13-3.23-4.13a6.7,6.7,0,0,0-4.61,2.1,10,10,0,0,1,.2,2.27V73.3H28.28V64.64c0-2.06-.53-4.13-3.23-4.13a6.31,6.31,0,0,0-4.47,2.17V73.3H19.11V62.13a9.26,9.26,0,0,0-.36-2.56l1.35-.22a10.08,10.08,0,0,1,.44,2.2A7.05,7.05,0,0,1,25.46,59.25Z"/><path class="cls-1" d="M57.77,73.18l-1.25.26a5.51,5.51,0,0,1-1.07-2.75,4.93,4.93,0,0,1-4.65,2.92c-2.3,0-4.42-1.16-4.42-4,0-3.14,1.55-4.2,8.88-4.59V63.55c0-1.86-.36-3.19-3.06-3.19a8.58,8.58,0,0,0-4.37,1.28l-.39-1.25a10.2,10.2,0,0,1,4.9-1.28c3.52,0,4.34,1.69,4.34,4.39v5.7A6.32,6.32,0,0,0,57.77,73.18Zm-10-3.69c0,2.43,2.1,2.87,3.23,2.87a4.3,4.3,0,0,0,4.27-3.26V66.16C49.45,66.47,47.76,67,47.76,69.49Z"/><path class="cls-1" d="M71.89,59.28l-.08,1.35a4.92,4.92,0,0,0-4.65,2.73V73.3H65.69v-10a15.08,15.08,0,0,0-.37-3.74l1.33-.22a8.63,8.63,0,0,1,.46,2.53A5.38,5.38,0,0,1,71.89,59.28Z"/><path class="cls-1" d="M84.19,72.19v1.13l-.94.07c-2.12.17-3.35-.62-3.35-3.18V60.77H77.46v-1.2H79.9v-3.4l1.47-.34v3.74h3.28v1.2H81.37v9.1c0,1.81.53,2.32,2.08,2.32Z"/><path class="cls-1" d="M94.74,73.3H93.29V54.77h1.93l10.19,16.14V54.77h1.44V73.3h-1.66L94.74,56.6Z"/><path class="cls-1" d="M122.66,72.38a10.5,10.5,0,0,0,4.32-.89l.29,1.23a11.94,11.94,0,0,1-4.73.94c-3.89,0-6.56-2.22-6.56-7,0-4.41,2.26-7.6,6.2-7.6,3.35,0,5.31,2.05,5.31,6.35v.84h-10c-.24,4.56,2.17,6.18,5.19,6.18ZM122,60.22c-2.49,0-4.16,2-4.49,4.85h8.61c-.07-3.26-1.37-4.85-4.1-4.85Z"/><path class="cls-1" d="M153.79,59.5h1.62l-4.68,13.8h-1.45L145,61.47,140.76,73.3h-1.45l-4.68-13.8h1.62l3.88,11.94,4.18-11.75h1.42L150,71.44Z"/><path class="cls-1" d="M170.3,61.19a7.52,7.52,0,0,0-3.43-.83c-1,0-2.82.46-2.82,2.37,0,1.4.89,2,3,2.8,2.25.92,3.94,1.86,3.94,4.12,0,3.07-2.2,4-4.32,4a13.88,13.88,0,0,1-4.61-.87l.39-1.28a10.44,10.44,0,0,0,4.07.87c1.55,0,3-.56,3-2.63,0-1.52-1.19-2.25-3.46-3.16-2-.82-3.42-1.57-3.42-3.79,0-2.83,2.41-3.62,4.27-3.62a9.7,9.7,0,0,1,3.81.79Z"/><path class="cls-1" d="M200.1,72.74h-1.33l-6.1-16-.82,16.6h-1.43l1-18.53h2l6.1,16,6.33-16h2.05l.94,18.53h-1.54l-.75-16.65Z"/><path class="cls-1" d="M224.35,72.38a10.5,10.5,0,0,0,4.32-.89l.29,1.23a11.94,11.94,0,0,1-4.73.94c-3.88,0-6.56-2.22-6.56-7,0-4.41,2.27-7.6,6.2-7.6,3.35,0,5.31,2.05,5.31,6.35v.84h-10c-.24,4.56,2.17,6.18,5.19,6.18Zm-.67-12.16c-2.49,0-4.15,2-4.49,4.85h8.61c-.07-3.26-1.37-4.85-4.1-4.85Z"/><path class="cls-1" d="M242.62,73.59c-3,0-5.26-2-5.26-6.78,0-4,1.33-7.65,5.72-7.65a6,6,0,0,1,4.44,1.93V54L249,53.7V69.44a10,10,0,0,0,.53,3.71l-1.31.27a6.5,6.5,0,0,1-.55-2.53,5.75,5.75,0,0,1-5,2.7Zm4.95-9.44a8.55,8.55,0,0,0-.1-1.64,5.28,5.28,0,0,0-4.2-2.07c-3.06,0-4.41,2.31-4.41,6.32,0,3.16,1.18,5.55,4,5.55a4.91,4.91,0,0,0,4.59-3,10.91,10.91,0,0,0,.1-1.59Z"/><path class="cls-1" d="M260.62,56.46h-1.76V54.74h1.76Zm-.14,16.84H259V59.5h1.47Z"/><path class="cls-1" d="M280.51,73.18l-1.26.26a5.59,5.59,0,0,1-1.06-2.75,4.94,4.94,0,0,1-4.66,2.92c-2.29,0-4.41-1.16-4.41-4,0-3.14,1.54-4.2,8.88-4.59V63.55c0-1.86-.37-3.19-3.07-3.19a8.61,8.61,0,0,0-4.37,1.28l-.38-1.25a10.17,10.17,0,0,1,4.9-1.28c3.52,0,4.34,1.69,4.34,4.39v5.7A6.32,6.32,0,0,0,280.51,73.18Zm-10-3.69c0,2.43,2.1,2.87,3.24,2.87A4.3,4.3,0,0,0,278,69.1V66.16C272.18,66.47,270.49,67,270.49,69.49Z"/><path class="cls-1" d="M309.05,68.74c-1-2.42-1.85-3.5-3.71-3.69h-3.67V73.3h-1.42V54.77h4.1c3.57,0,6.54.77,6.54,4.75a4.67,4.67,0,0,1-3.67,4.9c1.28.43,2.17,1.35,3,3.52.65,1.64,1.52,3.79,2.1,5.36h-1.62C310.33,72,309.71,70.33,309.05,68.74Zm.37-9.07c0-2.73-1.91-3.58-4.95-3.58h-2.8v7.68h4.15A3.92,3.92,0,0,0,309.42,59.67Z"/><path class="cls-1" d="M326.6,72.38a10.53,10.53,0,0,0,4.32-.89l.29,1.23a12,12,0,0,1-4.73.94c-3.89,0-6.57-2.22-6.57-7,0-4.41,2.27-7.6,6.2-7.6,3.36,0,5.31,2.05,5.31,6.35v.84h-10c-.24,4.56,2.18,6.18,5.19,6.18Zm-.68-12.16c-2.48,0-4.15,2-4.49,4.85h8.62c-.07-3.26-1.38-4.85-4.1-4.85Z"/><path class="cls-1" d="M347.33,61.19a7.52,7.52,0,0,0-3.43-.83c-1,0-2.82.46-2.82,2.37,0,1.4.89,2,3,2.8,2.25.92,3.94,1.86,3.94,4.12,0,3.07-2.2,4-4.32,4a13.88,13.88,0,0,1-4.61-.87l.39-1.28a10.44,10.44,0,0,0,4.07.87c1.55,0,3-.56,3-2.63,0-1.52-1.19-2.25-3.45-3.16-2-.82-3.43-1.57-3.43-3.79,0-2.83,2.41-3.62,4.27-3.62a9.66,9.66,0,0,1,3.81.79Z"/><path class="cls-1" d="M362.63,72.38a10.45,10.45,0,0,0,4.31-.89l.3,1.23a12,12,0,0,1-4.73.94c-3.89,0-6.57-2.22-6.57-7,0-4.41,2.27-7.6,6.2-7.6,3.36,0,5.31,2.05,5.31,6.35v.84h-10c-.24,4.56,2.17,6.18,5.19,6.18ZM362,60.22c-2.49,0-4.15,2-4.49,4.85h8.62c-.08-3.26-1.38-4.85-4.11-4.85Z"/><path class="cls-1" d="M386.54,73.18l-1.25.26a5.51,5.51,0,0,1-1.07-2.75,4.92,4.92,0,0,1-4.65,2.92c-2.29,0-4.42-1.16-4.42-4,0-3.14,1.54-4.2,8.88-4.59V63.55c0-1.86-.36-3.19-3.06-3.19a8.58,8.58,0,0,0-4.37,1.28l-.39-1.25a10.2,10.2,0,0,1,4.9-1.28c3.52,0,4.34,1.69,4.34,4.39v5.7A6.32,6.32,0,0,0,386.54,73.18Zm-10-3.69c0,2.43,2.1,2.87,3.23,2.87A4.3,4.3,0,0,0,384,69.1V66.16C378.22,66.47,376.53,67,376.53,69.49Z"/><path class="cls-1" d="M401.62,59.28l-.07,1.35a4.93,4.93,0,0,0-4.66,2.73V73.3h-1.47v-10a15.16,15.16,0,0,0-.36-3.74l1.33-.22a9,9,0,0,1,.45,2.53A5.4,5.4,0,0,1,401.62,59.28Z"/><path class="cls-1" d="M408.38,66.57c0-4.23,1.71-7.53,6.47-7.53a11.62,11.62,0,0,1,3.21.5l-.29,1.31a8.72,8.72,0,0,0-2.92-.51c-3.77,0-5,2.9-5,6.25,0,3.09,1.23,5.79,5.06,5.79a8.16,8.16,0,0,0,3-.51l.24,1.33a10.37,10.37,0,0,1-3.31.51c-4.95,0-6.49-3.43-6.49-7.12Z"/><path class="cls-1" d="M433.11,59.25c3,0,4.32,1.79,4.32,5.07v9H436V64.64c0-2.06-.51-4.13-3.21-4.13a6.43,6.43,0,0,0-4.65,2.2V73.3h-1.5V54l1.5-.25v7.77A7.26,7.26,0,0,1,433.11,59.25Z"/><path class="cls-1" d="M459.83,73.3h-1.52V54.77h1.52Z"/><path class="cls-1" d="M471,59.35a8.4,8.4,0,0,1,.46,2.2,7.29,7.29,0,0,1,5-2.3c3,0,4.35,1.79,4.35,5.07v9h-1.47V64.64c0-2.06-.51-4.13-3.21-4.13a6.51,6.51,0,0,0-4.66,2.17V73.3H470V62.13a8.91,8.91,0,0,0-.37-2.56Z"/><path class="cls-1" d="M497.57,61.19a7.46,7.46,0,0,0-3.43-.83c-1,0-2.82.46-2.82,2.37,0,1.4.89,2,3,2.8,2.24.92,3.93,1.86,3.93,4.12,0,3.07-2.19,4-4.32,4a13.93,13.93,0,0,1-4.61-.87l.39-1.28a10.49,10.49,0,0,0,4.08.87c1.54,0,3-.56,3-2.63,0-1.52-1.18-2.25-3.45-3.16-2-.82-3.43-1.57-3.43-3.79,0-2.83,2.42-3.62,4.27-3.62A9.75,9.75,0,0,1,498,60Z"/><path class="cls-1" d="M511.71,72.19v1.13l-.94.07c-2.12.17-3.35-.62-3.35-3.18V60.77H505v-1.2h2.44v-3.4l1.47-.34v3.74h3.28v1.2h-3.28v9.1c0,1.81.53,2.32,2.07,2.32Z"/><path class="cls-1" d="M521.92,56.46h-1.76V54.74h1.76Zm-.14,16.84H520.3V59.5h1.48Z"/><path class="cls-1" d="M536.42,72.19v1.13l-.94.07c-2.12.17-3.35-.62-3.35-3.18V60.77h-2.44v-1.2h2.44v-3.4l1.47-.34v3.74h3.28v1.2H533.6v9.1c0,1.81.53,2.32,2.08,2.32Z"/><path class="cls-1" d="M549.24,73.68c-3,0-4.32-1.81-4.32-5.06V59.5h1.47v8.83c0,2,.51,4.1,3.21,4.1a6.59,6.59,0,0,0,4.66-2.17V59.5h1.47V70.4a9.7,9.7,0,0,0,.41,3l-1.35.22a6.66,6.66,0,0,1-.46-2.15A7.43,7.43,0,0,1,549.24,73.68Z"/><path class="cls-1" d="M570.47,72.19v1.13l-.94.07c-2.12.17-3.35-.62-3.35-3.18V60.77h-2.44v-1.2h2.44v-3.4l1.47-.34v3.74h3.28v1.2h-3.28v9.1c0,1.81.53,2.32,2.08,2.32Z"/><path class="cls-1" d="M584.88,72.38a10.5,10.5,0,0,0,4.32-.89l.29,1.23a11.94,11.94,0,0,1-4.73.94c-3.89,0-6.56-2.22-6.56-7,0-4.41,2.26-7.6,6.2-7.6,3.35,0,5.31,2.05,5.31,6.35v.84h-10c-.24,4.56,2.17,6.18,5.19,6.18Zm-.67-12.16c-2.49,0-4.16,2-4.49,4.85h8.61c-.07-3.26-1.37-4.85-4.1-4.85Z"/><path class="cls-1" d="M28.22,4.57a40.81,40.81,0,0,1-7.1,15.84A139.31,139.31,0,0,1,33.86,31.57l-3.61,3.5A136.14,136.14,0,0,0,18.51,23.63,46.7,46.7,0,0,1,3.24,35.07L.75,31.5A39.43,39.43,0,0,0,22.54,8.63H2.78V4.57Z"/><path class="cls-1" d="M46.13,16.31a77.12,77.12,0,0,1,7,5.67A34.59,34.59,0,0,0,64.55,10.21H38.12V6H71c-.73,2.65-3.11,10.86-14.85,18.76a88.76,88.76,0,0,1,6.14,6.87l-3.72,3.07A76.76,76.76,0,0,0,43,19.18Z"/><path class="cls-1" d="M106.42,16.77v4.48H76.79V16.77Z"/><path class="cls-1" d="M138.4,24.63a79.31,79.31,0,0,0-16.19-8.09V35.33h-4.64V2.57h4.64v9.48a98.93,98.93,0,0,1,18.42,8.13Z"/><path class="cls-1" d="M180.91,27.2v4.26H148.76V27.2Zm-3-20.6v4.26h-26.2V6.6Z"/><path class="cls-1" d="M216.94,29.58v3.76H189.66V29.58h16a97.15,97.15,0,0,0,1.77-13.93H193.27V11.82h18.45a128.47,128.47,0,0,1-1.92,17.76Z"/><path class="cls-1" d="M253.89,16.77v4.48H224.26V16.77Z"/><path class="cls-1" d="M287.07,4.57A40.52,40.52,0,0,1,280,20.41a139.31,139.31,0,0,1,12.74,11.16l-3.61,3.5a136.14,136.14,0,0,0-11.74-11.44,46.5,46.5,0,0,1-15.27,11.44L259.6,31.5A39.41,39.41,0,0,0,281.39,8.63H261.64V4.57Z"/><path class="cls-1" d="M322.1,8.67A77.11,77.11,0,0,1,333,15.54a54.19,54.19,0,0,0,5.64-12.62l4.53,1.38a68.91,68.91,0,0,1-6.71,13.85,85.18,85.18,0,0,1,8.28,7.52l-3.41,3.68a78.79,78.79,0,0,0-7.56-7.44,44.27,44.27,0,0,1-17,13l-2.65-3.53c3.68-1.65,10.63-4.68,16.38-12.2a80.36,80.36,0,0,0-11-7.29Z"/><path class="cls-1" d="M355.63,31.57c10.4-1.76,12.55-5.9,12.78-13.88H353.83v-4h31.34v4H372.82c-.35,12.2-6.26,15.88-15.42,17.76ZM378,4V8H356.9V4ZM381.26.77a34.51,34.51,0,0,1,2.42,7.82l-3,1a31.79,31.79,0,0,0-2.22-7.94ZM386.75,0a33.51,33.51,0,0,1,2.37,7.86l-2.95,1A30.93,30.93,0,0,0,384,.88Z"/><path class="cls-1" d="M407.92,35.56h-4V22.18a50,50,0,0,1-11.47,5.63l-1.8-3.56A45.34,45.34,0,0,0,413,8.82l3.41,2.46a56,56,0,0,1-8.44,8.06Z"/><path class="cls-1" d="M456.61,4.07c-1.31,9.55-5.83,13.39-11.82,16.57l-2.88-3.3c6.64-2.88,8.33-6.06,9.29-9.13H424.61V4.07ZM425.07,31.73c10.52-4.38,11.86-11.51,11.82-19.91l4.45,0c-.15,7.68-.84,17.42-13.39,23.37Z"/><path class="cls-1" d="M477.79,13.54V35.41H467.24V21.83a13.66,13.66,0,0,1-1.54,1.84l-1.65-4.53c3.07-4,4.22-7.17,4.61-12.7h-4V2.72h13.89V6.44h-6.21a27.83,27.83,0,0,1-1.27,7.1Zm-3.42,3.53h-3.6V31.84h3.6Zm8.75-10.63h-3V2.72h20.14V6.44h-3.68v9h4.25v3.76h-4.25V37h-3.95V19.22H487v3.34c0,5.33-1,10.89-4.91,14.46l-3.53-2.8c1.23-1.19,4.53-4.37,4.53-12v-3h-3.68V15.46h3.68Zm3.91,9h5.61v-9H487Z"/><path class="cls-1" d="M526.47,15.58c-.07,1.15-.07,2-.34,4.06h10.78V31.73c0,.8,0,1,.77,1h2.41c.69,0,.92-.35,1-5.45l3.72.84c-.19,6.56-.26,8.33-3,8.33H536C533,36.45,533,34.38,533,33V23.44H525.4c-.92,3.68-3.22,10.05-14.89,13.74l-2-4c2.15-.42,7.63-1.49,11.2-5.94a10.76,10.76,0,0,0,1.73-3.84H510.51v-3.8h11.71c.19-1.8.23-2.84.26-4.06Zm15.7-3.92c-.31,3.15-.89,4.68-3.19,4.68h-7.25c-2.11,0-3.15-.53-3.15-2.53V7.63h-4.91c-1,4-3.26,8-11.77,10.36l-1.39-3.79c5.84-1,8-2.81,9.48-6.57h-6.21v4h-4V4h14.93V1h3.83V4h15.08v7.71Zm-2.27-4H532V12c0,.46,0,.88.88.88h4.57c.88,0,1-.31,1.22-3l1.23.27Z"/><path class="cls-1" d="M555.79,9.59h14.15V24.17H559.62c-.23,6.6-.92,9.67-3.11,12.81l-3.37-2.8c1-1.61,2.65-4.45,2.65-11.12Zm15.57-3.53H553.94V2.3h17.42Zm-11.74,7.25v7h6.49v-7Zm29.85-8.82c-2.84,1.19-6.25,2.15-12.74,2.76v5.53h12.89v3.83h-4.18V37h-4V16.61h-4.76c0,3.53,0,13.28-5.14,20.22L568,34.07c4.76-5.18,4.76-13.55,4.76-15.08V3.8a37.68,37.68,0,0,0,14.2-3Z"/></g></g></svg>